<svg width="248" height="90" viewBox="0 0 248 90" fill="none" xmlns="http://www.w3.org/2000/svg">
<path d="M215.36 89.5759C211.155 89.5759 207.963 88.5373 205.785 86.46C203.657 84.3828 202.593 81.4188 202.593 77.5683V25.3325H212.624V75.3643C212.624 76.9856 212.979 78.2269 213.688 79.0882C214.398 79.8989 215.436 80.3042 216.804 80.3042C217.311 80.3042 217.868 80.2029 218.476 80.0002C219.084 79.7469 219.718 79.3922 220.376 78.9362L223.872 86.46C222.656 87.372 221.288 88.1066 219.768 88.664C218.299 89.2719 216.83 89.5759 215.36 89.5759ZM196.437 59.1768V50.6651H222.124V59.1768H196.437Z" fill="#0353A4"/>
<path d="M178.515 89.5759C176.083 89.5759 173.803 89.2212 171.675 88.5119C169.547 87.7519 167.673 86.688 166.052 85.32C164.43 83.9014 163.164 82.1788 162.252 80.1521L170.839 76.2003C171.599 77.4162 172.638 78.4802 173.955 79.3922C175.273 80.2535 176.793 80.6841 178.515 80.6841C180.187 80.6841 181.479 80.4561 182.391 80.0002C183.303 79.4935 183.759 78.7842 183.759 77.8722C183.759 76.9602 183.379 76.3016 182.619 75.8963C181.91 75.4403 180.922 75.0603 179.655 74.7563L176.159 73.8443C172.511 72.8817 169.623 71.3617 167.495 69.2845C165.418 67.1565 164.38 64.7246 164.38 61.9887C164.38 58.0875 165.621 55.0729 168.103 52.945C170.637 50.817 174.209 49.7531 178.819 49.7531C181.2 49.7531 183.404 50.1077 185.431 50.817C187.508 51.5263 189.281 52.5143 190.751 53.7809C192.22 55.0476 193.233 56.5168 193.791 58.1888L185.507 61.9887C185.152 60.9754 184.291 60.1647 182.923 59.5568C181.555 58.8981 180.187 58.5688 178.819 58.5688C177.451 58.5688 176.387 58.8728 175.627 59.4808C174.918 60.0381 174.563 60.8234 174.563 61.8367C174.563 62.4953 174.918 63.0527 175.627 63.5086C176.337 63.914 177.35 64.2686 178.667 64.5726L183.607 65.7886C186.09 66.3966 188.066 67.3845 189.535 68.7525C191.055 70.0698 192.144 71.5644 192.803 73.2364C193.512 74.8576 193.867 76.4536 193.867 78.0242C193.867 80.3041 193.183 82.3307 191.815 84.104C190.497 85.8266 188.673 87.1693 186.343 88.1319C184.063 89.0945 181.454 89.5759 178.515 89.5759Z" fill="#0353A4"/>
<path d="M146.733 88.6639L146.429 80.9881V69.4365C146.429 67.1565 146.175 65.2059 145.669 63.5846C145.213 61.9634 144.453 60.7221 143.389 59.8607C142.375 58.9488 140.982 58.4928 139.209 58.4928C137.588 58.4928 136.118 58.8474 134.801 59.5568C133.484 60.2661 132.369 61.3554 131.457 62.8247L122.641 59.7848C123.351 58.1635 124.389 56.5928 125.757 55.0729C127.125 53.5023 128.899 52.2356 131.077 51.273C133.306 50.2597 136.017 49.7531 139.209 49.7531C143.059 49.7531 146.251 50.4877 148.785 51.957C151.368 53.4263 153.268 55.5035 154.484 58.1888C155.751 60.8234 156.359 63.9646 156.308 67.6125L156.08 88.6639H146.733ZM136.093 89.5759C131.533 89.5759 127.987 88.5626 125.453 86.536C122.971 84.5093 121.729 81.6468 121.729 77.9482C121.729 73.895 123.072 70.8551 125.757 68.8285C128.493 66.7512 132.318 65.7126 137.233 65.7126H146.885V73.1604H140.729C137.436 73.1604 135.156 73.5657 133.889 74.3763C132.622 75.1363 131.989 76.2256 131.989 77.6442C131.989 78.7589 132.496 79.6455 133.509 80.3041C134.522 80.9121 135.941 81.2161 137.765 81.2161C139.437 81.2161 140.906 80.8361 142.173 80.0761C143.49 79.2655 144.529 78.2522 145.289 77.0362C146.049 75.7696 146.429 74.4776 146.429 73.1604H148.861C148.861 78.3282 147.873 82.3561 145.897 85.244C143.971 88.1319 140.703 89.5759 136.093 89.5759Z" fill="#0353A4"/>
<path d="M100.61 89.5759C96.6579 89.5759 93.1366 88.7399 90.0461 87.0679C86.9555 85.3453 84.5489 82.9894 82.8263 80.0002C81.1036 76.9602 80.2423 73.515 80.2423 69.6645C80.2423 65.7632 81.1036 62.318 82.8263 59.3288C84.5489 56.3395 86.9301 54.0089 89.9701 52.337C93.01 50.6144 96.5059 49.7531 100.458 49.7531C104.258 49.7531 107.728 50.6904 110.869 52.565C114.011 54.4396 116.291 57.1502 117.709 60.6967L108.286 64.0406C107.576 62.5713 106.462 61.406 104.942 60.5447C103.472 59.6328 101.826 59.1768 100.002 59.1768C98.1271 59.1768 96.4805 59.6328 95.0619 60.5447C93.6433 61.406 92.5286 62.622 91.718 64.1926C90.9074 65.7632 90.502 67.5872 90.502 69.6645C90.502 71.7417 90.9074 73.5657 91.718 75.1363C92.5286 76.6563 93.6686 77.8722 95.1379 78.7842C96.6072 79.6962 98.2791 80.1521 100.154 80.1521C101.978 80.1521 103.624 79.6708 105.094 78.7082C106.614 77.7455 107.728 76.4789 108.438 74.9083L117.937 78.2522C116.468 81.8494 114.163 84.636 111.021 86.6119C107.931 88.5879 104.46 89.5759 100.61 89.5759Z" fill="#0353A4"/>
<path d="M68.0405 89.5759C63.8353 89.5759 60.6434 88.5373 58.4648 86.46C56.3369 84.3828 55.2729 81.4188 55.2729 77.5683V38.8094H65.3046V75.3644C65.3046 76.9856 65.6593 78.2269 66.3686 79.0883C67.0779 79.8989 68.1165 80.3042 69.4845 80.3042C69.9911 80.3042 70.5485 80.2029 71.1564 80.0002C71.7644 79.7469 72.3977 79.3922 73.0564 78.9363L76.5523 86.46C75.3363 87.372 73.9684 88.1067 72.4484 88.664C70.9791 89.2719 69.5098 89.5759 68.0405 89.5759ZM49.1171 59.1768V50.6651H74.8043V59.1768H49.1171Z" fill="#0353A4"/>
<rect x="33.1603" y="50.665" width="9.49972" height="37.9989" fill="#0353A4"/>
<path d="M6.45982 88.664V46.8652C6.45982 42.812 7.49846 39.6708 9.57573 37.4415C11.653 35.1616 14.8196 34.0216 19.0754 34.0216C20.5447 34.0216 22.09 34.2749 23.7113 34.7816C25.3833 35.2882 26.9032 35.8962 28.2712 36.6055L24.5473 43.8253C23.7366 43.42 23.002 43.116 22.3433 42.9133C21.6847 42.7107 21.0767 42.6094 20.5194 42.6094C19.1514 42.6094 18.1381 43.0907 17.4795 44.0533C16.8208 44.9653 16.4915 46.4599 16.4915 48.5372V88.664H6.45982ZM0.152008 58.7209V50.6651H25.8392V58.7209H0.152008Z" fill="#0353A4"/>
<path d="M248 38C241.447 32.51 234.973 32.9128 228.446 38C220.929 32.6818 214.908 32.6711 209.5 38C201.978 32.6562 196.778 32.9201 190.25 38C183.053 32.151 178.694 31.8619 171 38C171 17.0132 188.237 0 209.5 0C230.763 0 248 17.0132 248 38Z" fill="#0353A4"/>
<circle cx="39" cy="21" r="7" fill="#0353A4"/>
<line x1="39" y1="9" x2="39" y2="3" stroke="#0353A4" stroke-width="2"/>
<line x1="51.9563" y1="7.57576" x2="47.4122" y2="12.1198" stroke="#0353A4" stroke-width="2"/>
<line x1="57" y1="21" x2="51" y2="21" stroke="#0353A4" stroke-width="2"/>
<line x1="31.2632" y1="12.1198" x2="26.7192" y2="7.57576" stroke="#0353A4" stroke-width="2"/>
<line x1="39" y1="39" x2="39" y2="33" stroke="#0353A4" stroke-width="2"/>
<line x1="52.6842" y1="33.5407" x2="48.1401" y2="28.9967" stroke="#0353A4" stroke-width="2"/>
<line x1="31.4227" y1="28.9968" x2="26.8786" y2="33.5408" stroke="#0353A4" stroke-width="2"/>
<line x1="27" y1="21" x2="21" y2="21" stroke="#0353A4" stroke-width="2"/>
</svg>
